<svg id="Layer_1" data-name="Layer 1" xmlns="http://www.w3.org/2000/svg" xmlns:xlink="http://www.w3.org/1999/xlink" viewBox="0 0 706.62 161"><defs><style>.cls-1{fill:none;}.cls-2{clip-path:url(#clip-path);}.cls-3{font-size:92.97px;}.cls-3,.cls-4,.cls-5,.cls-6,.cls-7{fill:#b7a67b;}.cls-3,.cls-4,.cls-5,.cls-7{font-family:OpenSans-Bold, Open Sans;font-weight:700;}.cls-4{font-size:83.35px;}.cls-5{font-size:109.22px;}.cls-7{font-size:24px;}</style><clipPath id="clip-path"><rect class="cls-1" x="-453.11" y="17.58" width="1610.28" height="125.73"/></clipPath></defs><title>logoArtboard 1</title><g class="cls-2"><text class="cls-3" transform="translate(9.98 111.51) scale(1 1.35)">W</text><text class="cls-4" transform="translate(99.48 81.35) scale(1.11 1)"><tspan xml:space="preserve"> A Y P      I N </tspan></text><text class="cls-5" transform="translate(648.15 111.28) scale(0.85 1.13)">T</text></g><path class="cls-6" d="M424.87,7.23A48.06,48.06,0,0,0,381.52,76c.17.36,43.35,85,43.35,85l42.82-83.9A48.07,48.07,0,0,0,424.87,7.23Zm0,76.89A28.84,28.84,0,1,1,453.7,55.28,28.84,28.84,0,0,1,424.87,84.12Z"/><text class="cls-7" transform="translate(152.35 112.99) scale(1 1.35)">From Students . . .</text><text class="cls-7" transform="translate(472.92 112.99) scale(1 1.35)">. . . to Doctors</text></svg>