<svg xmlns="http://www.w3.org/2000/svg" viewBox="0 0 841.89 595.28"><defs><style>.cls-1{fill:#4b2e83;}.cls-2,.cls-3,.cls-4,.cls-7,.cls-8{fill:none;stroke:#b7a57a;stroke-linecap:round;}.cls-2,.cls-3,.cls-4,.cls-6,.cls-7,.cls-8{stroke-miterlimit:10;}.cls-2,.cls-3,.cls-4{stroke-width:4px;}.cls-3{stroke-dasharray:10.61 10.61;}.cls-4{stroke-dasharray:11.17 11.17;}.cls-5,.cls-6{font-size:20.63px;font-family:FontAwesome5FreeSolid, Font Awesome 5 Free;}.cls-5{fill:#b7a57a;}.cls-6{fill:#fff;stroke:#4b2e83;}.cls-7,.cls-8{stroke-width:2px;}.cls-7{stroke-dasharray:6;}</style></defs><title>Artboard 1</title><g id="Layer_1" data-name="Layer 1"><path id="ID" class="cls-1" d="M372.3,108.06l-2.73,17.85-2,21.25-1.48,16.5.73,9.65,1.71,4.27,3.79,2.23.26,3.91-3.36,4.83-3.69,7.08-.56,3-1.06,1.24-1.7,1-3.65,5.77,0,3.12-.27,1.14.71.93,2.57-.41,1.37,2.16-1.71,6-.7,4.31L355.86,260,377,262l40.15,3.23,35.27,2,1.45-29.57,1-24.38-3-2.07-.71-2.53-.92-1-2,1.24-.39,2.66-3.12.87-4.06-1.13-3.76.54-2.4,1-3.55-1.09-2.36.48-2.15,2.27-2.12-.86-1.16-3.89.35-3-2.82-2.59L417.1,202l-4.21-12.69-.65-4.66-.31-.06-.15.42-4.66,4.07h-1.71l-3.28-3-.56-3,4.95-17.83-.63-1.88-3.51-.75-.73-1.1-3-3.13-5.77-9.62-3.35-1.15L387,142.88l.75-4.75L383.66,131l1.85-21.89Z"/><path id="MT" class="cls-1" d="M561.87,129.16l1.42,57.36.49,15.25-59.47.36-49.49-1.32-.08,11.29-2.09-1.47L452,208.2l-1.51-1.74-3.1,1.88-.41,2.56-2.25.57-4-1.15-4.06.58-2.3,1L431,210.76l-3,.55-1.86,2.14-1-.49-1.09-3.3.32-3.26-3-2.86-3.57-2.1-4-12.22-.72-5.25-1.68-.61-.48,1.07-4.1,3.7-1.2,0-2.61-2.51-.53-2.76,4.95-17.85-.91-2.58-3.61-.7-.5-.86-3.09-3.16-5.79-9.8-3.36-1.19-2.29-4,.75-4.76-4.06-7.14,1.87-21.66,33.29,3,18.67,1.22,32.7,1.49,29.56.54,29.41.06,31-.56Z"/><path id="WA" class="cls-1" d="M276.88,159.65l-2.79-4-4.15-.22-.68-2.33-2.56-.31-2.93-.15-1.67,1.2-2.63-2.61,0-2.92,2.65-.61,1.12-4.16-2.71-.79-.24-3.7,4.3-1.11-3-2.36-2.32-6.88.26-2.95-.92-7.84-2.17-3,1.19-9.61,2.14.26,2.73,2.59,3,2.27,3.4,1.51,4.72,1.56,3.15.24,3.05,1.15,3.49.59,2.27-.47-.29-2.38,1.17-1.24,1.93-1.54.43,1.06.51,1.75-2.23.76-.05,2.12,2,1.28,1.37,2.26.82,1.82,1.47-.38,0-1.31-1.14-1.18-.87-3.12.58-1.88-.77-1.42-.3-2.58,1.36-3.79-1.39-2.45-2.95-4.49.21-.82,1.29-1,4.55,1,9.95,1.55,8.76.88,20.53,3.32,23.51,3,15.3,1.71-2.71,18-2,21.21-1.47,16.54.67,9.16h0l-13.24-2.18L336.88,169l-14.36,2-1.27-1.39-5.42,2.74-3.92,0L309.12,171l-1.61.84-4.15.24-1.87-1.11-5.33-1.21-1.19,0-4.93-.82-1.72,1.87-5.64.41-5-2.79Zm3.05-56.14,2-.43.66,1.33,1.3-1.77,2.29-.27,1,1.4-1.29,1.86.69.73-.46,2.07-1.35.56s-.88.2-.92-.1a20.91,20.91,0,0,1,1.19-2.75l-1.76-.4-.12,1.52-.63.68-1.75-2.11Z"/><path id="WY" class="cls-1" d="M564.49,220.61,566,246l.78,44.22H564l-83.79.71-28.06.29.58-12.15,2.06-41.53.94-24.48,0-11.27,48.69,1.31,59.45-.46Z"/><path id="AK" class="cls-1" d="M293.82,250.7,291,336.05l1.56,1.05,3.1.29,1.53-1.05,2.6.07.11,2.91,6.8,7,.42,2.62,3.45-1.8.61-.19.39-3.08,1.55-1.56,1.1-.17,2-1.44,3,2.19.52,2.92,1.86,1.15,1,2.43,3.85,1.92,3.22,6.1,2.58,4,2.22,2.76,1.39,3.75,4.95,1.94,5.13,2.26.87,4.42.41,3.12-1.1,3.37-1.87,2.24-1.58-.84-1.4-3.15-2.66-1.58-1.76-1.15-.83.78,1.42,2.74.09,3.7-1.11.47-1.85-2-2.06-1.37.46,1.62,1.24,1.84-.82.77a3.11,3.11,0,0,1-1.27-1c-.48-.61-2-3.46-2-3.46l-.93-2.33s-.34,1.29-1,1a4.77,4.77,0,0,1-1.25-1.53l1.85-1.85-1.45-1.54.14-5-.8,0-.9,3.38-1.11.47-.89-3.73-.49-3.72-.78-.52.13,5.71,0,1.09-1.46-1.34-3.42-6.1-2.08-.57-.49-3.71-1.52-2.95L312,358.19l.07-2.3,2.13-1.24-.49-.32-2.61.53-3.33-2.5-2.51-3-4.72-2.74-3.93-2.72,1.4-3.16.05-1.6-1.85,1.55-2.93,1-3.67-1.21L284,338l-5.5-.17-.62.48-6.38-4.09-2.09-.36-2.52-5.88-3.61.2-3.65,1.39L260,334l1.19-2.86,1,.33-1.63,4.35,3.28-2.6.55,1.61-4,4.29-1.29-.34-.44-1.92-1.28-.84L256,337.12l-2.65-1.88-3.16,2-1.86,2.05-3.46,2-4.69-.34-.44-2.12,3.72-.49,0-1.29-2.28-.67,1.07-2.37,2.42-3.83,0-1.8.23-.8,4.46-2.16,1,1.33,2.7.08-1.22-2.64-3.69-.41-5.08,2.55-2.5,3.33-1.87,2.54-1.17,2.27-4.24,1.37-3.18,2.51-.35,1.59,2.27,1.07.74,2.12-2.79,3.12-6.63,4-7.92,4-2.13,1-5.33.94-5.36,2.14,1.76,1.36-1.55,1.45-.53,1.09-2.67-1.08-3.2.1-.87,2.28-1,0,.37-2.39-3.64,1.19-2.93.91-3.36-1.4-2.95,1.82-3.2-.1-2.14,1.24-1.62.75-2.09-.36L170.5,364l-2.31.53-1,1-1.57-1.14.06-1.9,3.13-1.21,6.28.79,4.45-1.47,2.16-2,2.92-.51,1.82-.75,2.69.28,1.56,1.35,1-.27,2.38-2.63,3.13-.91,3.42-.5,1.3-.26.59.52.8,0,1.41-3.66,4-1.38,2-3.64,2.43-4.43,1.65-1.45.37-2.59L213.56,339l-3.41.5-.53-2.42-1.29-.34-1,1-.29,2.89-1.49-.24-1.33-5.84-1.33,1.26-1.09-.53-.24-1.91-4,.08-2.13,1L192.8,334l1.55-1.46.57-2.58-.54-1.92,1.53-.95,1.3-.16-.54-1.82.13-4.4-1-1L195,321.2l-6.09-.18-1.46-1.35-.49-3.91-2-3.66,0-1,2.12-.74.26-2.09,1.14-1.07-.79-.52-1.31.46-1-2.73,1.14-5,4.6-3.07,2.64-1.52,2-3.64,2.74-1.22,2.57,1.18.22,2.4,2.41-.22L207,291l1.58.65,1,.63,1.6.05,2.33-1.24.93-4.37s.39-2.89,1.1-3.37a7.33,7.33,0,0,0,1-1l-1-1.93-2.62.72-3.23.71-1.88-.56-3.55-1.91-5-.34-3.49-3.81.62-3.88L197,269,195,267.17l-1.78-3.75.52-.78,6.81-.3,2.1.06,1,1,.6,0-.15-1.61,3.91-.48,2.59.37,1.47,1.15-1.56,2.05-.55,1.49,2.66,1.68,4.94,1.94,1.83-.94-2.17-4.47-.9-3.23,1-.77-3.34-2-.47-1.11.55-1.59-.69-3.92-2.76-4.78L208.31,243l2.95-1.81,3.2.09,1.78.65,4.21-.07,3.8-3.49,1.19-3.07,3.77-2.29,1.57,1.05,2.72-.52,3.76-2,1.11-.16,1,.82,4.51-.06,2.79-3,1.1,0,3.52,2.51,1.84,2.15-.53,1.09.57,1.12,1.64-1.56,3.89.42.19,3.71,1.86,1.55,7.08.81,6.17,4.39,1.53-1,5.12,2.75,2.11-.53,1.93-.75,4.74,2.05ZM177.91,276.17l1.94,5.36-.23,1-2.89-.39-1.68-4.05-1.75-1.55-2.4-.08-.12-2.6,1.87-2.35,1,2.44,1.46,1.54Zm-3.59,33.41,3.67.91,3.67,1.11.77,1-1.71,3.65-3.09-.29-3.29-3.7Zm-20.27-14.71,1,2.63,1.05,1.64-1.12.76-2-3.16.06-1.9Zm-15.87,72.66,3.47-2.19,3.43-.9,2.59.37.45,1.62L150,367l2-1.85-.25-1.61,2.72-.52,2.82,2.69-1.16,1.77-4.43,1-2.68-.57-3.67-1.21L140.87,368l-1.61.26Zm49-3,1.54,1.94,2.15-1.53-1.47-1.35Zm2.81,3.08,1.16-2.26,2.09.36-.85,1.87-2.4-.07Zm23.64-1.2,1.45,1.85,1-1.07-.74-1.93Zm9.17-12.23.93,5.83,2.87.88,5.09-2.75,4.47-2.46-1.53-2.45.57-2.39L233.09,352l-2.88-.88,1.63-1.06,1.88.86,3.95-1.68.54-1.49-2.37-.87.85-1.87-2.75,1.81-4.81,3.46-4.88,2.76Zm42.87-18.54,2.44-1.43-.95-1.83-1.82,1Z"/><line class="cls-2" x1="222.01" y1="187.66" x2="227.56" y2="189.95"/><line class="cls-3" x1="237.36" y1="194.02" x2="310.86" y2="224.48"/><line class="cls-2" x1="315.76" y1="226.51" x2="321.3" y2="228.81"/><line class="cls-2" x1="322" y1="229.37" x2="324.41" y2="234.87"/><line class="cls-4" x1="328.88" y1="245.1" x2="380.38" y2="362.72"/><line class="cls-2" x1="382.62" y1="367.84" x2="385.03" y2="373.33"/><text class="cls-5" transform="translate(430.9 159.44)"></text><text class="cls-6" transform="translate(290.43 113.54)"></text><text class="cls-5" transform="translate(371.27 208.23)"></text><text class="cls-5" transform="translate(542.54 277.02)"></text><text class="cls-5" transform="translate(245.68 322.69)"></text></g><g id="Layer_2" data-name="Layer 2"><path class="cls-7" d="M438.67,164.33s-10,14.67-44.67,16S358.67,141,358.67,141s-8-28-33.34-22-29.16.28-29.16.28L276.24,85"/><path class="cls-7" d="M550,282.53s-31.33-1.53-56-28.86-63.1-30-63.1-30-20.26,1.33-25.58-25.34-20.67-18-20.67-18"/><path class="cls-7" d="M379.33,213.45s21.39,8.19,28-8"/><circle class="cls-8" cx="275.24" cy="83.04" r="3"/><circle class="cls-8" cx="351.67" cy="362.85" r="3"/><path class="cls-7" d="M256.4,325.39s9.15-15.87,30.71-12.46,35.56,19.41,35.56,19.41l28,28.51"/></g></svg>