<svg id="Layer_1" data-name="Layer 1" xmlns="http://www.w3.org/2000/svg" viewBox="0 0 599 263"><defs><style>.cls-1{fill:#4b2e83;}.cls-2,.cls-3,.cls-4,.cls-5{fill:none;stroke-miterlimit:10;}.cls-2,.cls-3{stroke:#4b2e83;stroke-width:3px;}.cls-3{stroke-dasharray:1.97 4.92;}.cls-4,.cls-5{stroke:#231f20;stroke-width:2px;}.cls-4{stroke-dasharray:8;}.cls-6{font-size:20.4px;font-family:OpenSans-Bold, Open Sans;font-weight:700;}.cls-6,.cls-7{fill:#231f20;}.cls-7{font-size:12px;font-family:OpenSans, Open Sans;}</style></defs><title>Artboard 2</title><circle class="cls-1" cx="48.72" cy="186.19" r="31.14"/><circle class="cls-1" cx="259.75" cy="186.19" r="45.85"/><circle class="cls-1" cx="502.77" cy="186.19" r="63.13"/><line class="cls-2" x1="88.3" y1="186.19" x2="89.3" y2="186.19"/><line class="cls-3" x1="94.22" y1="186.19" x2="202" y2="186.19"/><line class="cls-2" x1="204.46" y1="186.19" x2="205.46" y2="186.19"/><line class="cls-2" x1="314.04" y1="186.19" x2="315.04" y2="186.19"/><line class="cls-3" x1="319.96" y1="186.19" x2="427.74" y2="186.19"/><line class="cls-2" x1="430.2" y1="186.19" x2="431.2" y2="186.19"/><line class="cls-4" x1="160" y1="91.39" x2="159" y2="91.39"/><line class="cls-5" x1="17.59" y1="17.68" x2="17.59" y2="92.68"/><text class="cls-6" transform="translate(29.59 35.16)">Step 1</text><text class="cls-7" transform="translate(29.59 61.51)">Partnering organizations <tspan x="0" y="14.4">complete a census survey</tspan></text><line class="cls-4" x1="349.9" y1="86.39" x2="348.9" y2="86.39"/><line class="cls-5" x1="213.9" y1="17.68" x2="213.9" y2="95.89"/><text class="cls-6" transform="translate(225.9 35.16)">Step 2</text><text class="cls-7" transform="translate(225.9 61.51)">Students use the mapping <tspan x="0" y="14.4">tool to find programs </tspan><tspan x="0" y="28.8">catering to them</tspan></text><line class="cls-4" x1="575.64" y1="81.39" x2="574.64" y2="81.39"/><line class="cls-5" x1="439.64" y1="17.68" x2="439.64" y2="95.39"/><text class="cls-6" transform="translate(451.64 35.16)">Step 3</text><text class="cls-7" transform="translate(451.64 61.01)">Gaps in program cover<tspan x="127.65" y="0">-</tspan><tspan x="0" y="14.4">age can be filled, and </tspan><tspan x="0" y="28.8">pipelines created</tspan></text></svg>